inDegrees=no
num_controls=7
num_derivatives=13
num_iterations=99
num_multipliers=7
num_parameters=0
num_slacks=7
num_states=26
objective=0.431106
objective_accelerations=0.050462
objective_balance=0.006775
objective_effort=0.031275
objective_height=0.341442
objective_ligament=0.001153
solver_duration=1391.749741
status=Solve_Succeeded
success=true
DataType=double
version=3
OpenSimVersion=4.5
endheader
time	/jointset/ground_pelvis/pelvis_tilt/value	/jointset/ground_pelvis/pelvis_tx/value	/jointset/ground_pelvis/pelvis_ty/value	/jointset/hip_l/hip_flexion_l/value	/jointset/hip_l/hip_adduction_l/value	/jointset/hip_l/hip_rotation_l/value	/jointset/back/lumbar_extension/value	/jointset/patellofemoral_l/patellar_flexion_l/value	/jointset/knee_l/knee_flexion_l/value	/jointset/knee_l/knee_adduction_l/value	/jointset/knee_l/knee_rotation_l/value	/jointset/ankle_l/ankle_angle_l/value	/jointset/subtalar_l/subtalar_angle_l/value	/jointset/ground_pelvis/pelvis_tilt/speed	/jointset/ground_pelvis/pelvis_tx/speed	/jointset/ground_pelvis/pelvis_ty/speed	/jointset/hip_l/hip_flexion_l/speed	/jointset/hip_l/hip_adduction_l/speed	/jointset/hip_l/hip_rotation_l/speed	/jointset/back/lumbar_extension/speed	/jointset/patellofemoral_l/patellar_flexion_l/speed	/jointset/knee_l/knee_flexion_l/speed	/jointset/knee_l/knee_adduction_l/speed	/jointset/knee_l/knee_rotation_l/speed	/jointset/ankle_l/ankle_angle_l/speed	/jointset/subtalar_l/subtalar_angle_l/speed	/forceset/tau_hip_flexion_l	/forceset/tau_hip_adduction_l	/forceset/tau_hip_rotation_l	/forceset/tau_knee_flexion_l	/forceset/tau_ankle_angle_l	/forceset/tau_subtalar_angle_l	/forceset/tau_lumbar_extension	lambda_cid13_p0	lambda_cid13_p1	lambda_cid13_p2	lambda_cid13_p3	lambda_cid13_p4	lambda_cid13_p5	lambda_cid14_p0	/jointset/ground_pelvis/pelvis_tilt/accel	/jointset/ground_pelvis/pelvis_tx/accel	/jointset/ground_pelvis/pelvis_ty/accel	/jointset/hip_l/hip_flexion_l/accel	/jointset/hip_l/hip_adduction_l/accel	/jointset/hip_l/hip_rotation_l/accel	/jointset/back/lumbar_extension/accel	/jointset/patellofemoral_l/patellar_flexion_l/accel	/jointset/knee_l/knee_flexion_l/accel	/jointset/knee_l/knee_adduction_l/accel	/jointset/knee_l/knee_rotation_l/accel	/jointset/ankle_l/ankle_angle_l/accel	/jointset/subtalar_l/subtalar_angle_l/accel	gamma_cid13_p0	gamma_cid13_p1	gamma_cid13_p2	gamma_cid13_p3	gamma_cid13_p4	gamma_cid13_p5	gamma_cid14_p0
1	-0.4485333917360604	-0.05348361481781336	0.5889959765215781	1.786252897863391	-0.2714736871834374	0.227480483629357	-0.4363273895451891	1.434599862472165	1.434599862472661	-0.1743938506434149	0.1745302574469026	0.314634995201428	0.05134968791202313	-0.01008283257536795	0.0004154861535583118	-0.004176192113185505	0.01858041972256882	0.001099608481732618	0.00395474810655982	6.16788330157815e-05	0.01027895083707369	0.01027895083707431	-3.42334129271334e-07	-2.278225744346427e-05	0.002340598425879499	0.002044197842905639	-0.3327702205742329	0.009754545099711225	-0.01200905469694742	-0.3716223270309809	0.04943433874168558	0.01294062718504419	0.2969982850241866	-30.51902061116154	1.480189159220058	-2.644911811272739	17.28736731261622	-730.3252648471363	-51.90222717549142	-0.0391393504056822	1.055113546582963	-0.03147245885454455	1.828653469805606	-5.736108999406358	-0.6131933669904867	-2.08717229086791	-0.01885293174662821	-5.596558432975868	-5.596558432975736	-0.083026971190942	0.01926453272170493	-1.218878668295443	-1.117351252099585	7.480325005072837e-10	1.552494400631447e-09	-1.043609840355381e-08	-2.110219664471457e-09	2.894116217835061e-09	-5.612404657656564e-09	1.635873355360075e-09
1.01	-0.4485819261188408	-0.0534810251384847	0.589045531112337	1.786152571370155	-0.2714925085804961	0.2274136117267823	-0.4363271844797801	1.43442322389294	1.434423223893272	-0.1743947475341749	0.1745301064324231	0.3145977883714776	0.0513155386014965	0.0003682115590449088	0.0001053383857746319	0.01408304481031232	-0.0386320754532074	-0.004860774757612668	-0.01732655184617203	-1.312082727106142e-05	-0.04559944421806986	-0.0455994442180712	-0.0001767785150036494	-7.265132733831148e-06	-0.009780676446876432	-0.008868256691374402	-0.3326031326125546	0.00977300615034535	-0.0120351611193513	-0.3716128584544383	0.04970921052300147	0.01292481452687908	0.2968893403986377	-30.41763088408914	1.468985176014674	-2.642761293487154	17.14565916623521	-730.1627432876485	-51.89963886360953	-0.03914915699365841	1.038938517986401	-0.03035134449630111	1.823947295797342	-5.711773221190732	-0.5870005505370022	-2.148228372616301	-0.0006617446893209099	-5.582395063133415	-5.582395063133761	0.0153832182159076	-0.007291971297041674	-1.208557730126817	-1.077327263039065	-1.809982562968497e-09	-2.045516693278809e-09	4.548454664560767e-08	6.365404083539289e-09	-8.334720417714126e-09	3.501489657044414e-08	-7.948492613829981e-09
1.02	-0.4485261823260543	-0.0534814500185851	0.5892775557707659	1.785480529236255	-0.2715708417595747	0.2271340029196539	-0.4363275010632727	1.433688018358894	1.433688018359064	-0.1743973417547884	0.1745301131344648	0.3144394076261273	0.05117243780383766	0.01077280253809611	-0.0001874257322528415	0.03231782142082754	-0.09576270841008387	-0.01080274792217674	-0.03859263280452311	-4.265094834195655e-05	-0.1014344401272066	-0.1014344401272094	-0.0003398083058137129	8.761046270442925e-06	-0.02189418465407795	-0.01974609958352852	-0.3324360446508789	0.009791467200981809	-0.01206126754177757	-0.3716033898778948	0.04998408230431868	0.01290900186871777	0.2967803957730858	-30.32437193605968	1.460200905473064	-2.64213457869606	17.05514894020077	-730.1044678320095	-51.84424413987345	-0.03915259884173696	1.04582291551063	-0.0279957289033031	1.823761407209082	-5.719736555626412	-0.6095113520342417	-2.084128491991754	-0.009799023903450717	-5.587878603774501	-5.587878603774285	-0.08034569317807677	0.01936634358063063	-1.217325335184559	-1.110428923674399	-4.412414470924112e-09	-5.713852265371988e-09	1.001711547262059e-07	1.453487600997549e-08	-1.943904538727202e-08	7.488233845517905e-08	-1.737424318509121e-08
1.03	-0.4483663941805234	-0.0534846694211475	0.5896917862825387	1.784237408814612	-0.2717084368305117	0.226641853865257	-0.436328018177749	1.432394724929795	1.432394724930181	-0.174401470124698	0.1745302720384406	0.3141599189223974	0.05092084880471984	0.02120031746149657	-0.0004489655406308238	0.05052233799652497	-0.1528662267803155	-0.01670628849108698	-0.05983198722096177	-6.657891597211749e-05	-0.157212629071897	-0.157212629071898	-0.0004785786078690924	2.205636774461347e-05	-0.0340033122147399	-0.03055378996764059	-0.3321781650643842	0.009862723413015584	-0.01214793904380924	-0.3713711051904856	0.05031525813062942	0.0129720286745068	0.2966331860926592	-30.19381184821241	1.39896313089534	-2.619800976286236	16.87919170220807	-729.8475511416636	-51.83343932143753	-0.03918058901174416	1.043540543050814	-0.02410513112463296	1.817899166459222	-5.706386786107518	-0.5793016421804987	-2.143080920647565	0.0004392713318548324	-5.571041129909538	-5.571041129909398	0.02043860343137223	-0.007869244458054881	-1.207666770342231	-1.063269817426763	-7.015299611986663e-09	-9.382905434181321e-09	1.548451705928393e-07	2.270122393823236e-08	-3.054209982962593e-08	1.147420266731449e-07	-2.679837523188378e-08
